# xmcd
#
# Track frame offsets:
#	150
#	22076
#	43138
#	60880
#	76235
#	89019
#	110554
#	125235
#	140732
#	163631
#	175438
#	204425
#	210726
#	225097
#	231661
#	250273
#
# Disc length: 3573 seconds
#
# Revision: 1
# Processed by: cddbd v1.5.1PL0 Copyright (c) Steve Scherf et al.
# Submitted via: audiograbber 1.82.02
#
DISCID=e60df310
DTITLE=The Weary Boys - Good Times
DYEAR=2003
DGENRE=Country
TTITLE0=Good Times
TTITLE1=Sweet Pauline
TTITLE2=Cruel Corrine
TTITLE3=California Blues
TTITLE4=Big Red Fella
TTITLE5=Two Long Years
TTITLE6=Haunt My Mind
TTITLE7=Never Be Lonely
TTITLE8=Evenin' Sun
TTITLE9=Kneelin' Drunkards Plea
TTITLE10=Rosarita #4
TTITLE11=Red Headed Gambler
TTITLE12=Still To Blame
TTITLE13=Copenhagen
TTITLE14=Eureka Town
TTITLE15=Baby I'm Still Fallin'
EXTD=
EXTT0=
EXTT1=
EXTT2=
EXTT3=
EXTT4=
EXTT5=
EXTT6=
EXTT7=
EXTT8=
EXTT9=
EXTT10=
EXTT11=
EXTT12=
EXTT13=
EXTT14=
EXTT15=
PLAYORDER=
